<?xml version="1.0" encoding="utf-8"?>
<!-- Generator: Adobe Illustrator 21.0.0, SVG Export Plug-In . SVG Version: 6.00 Build 0)  -->
<svg version="1.1" id="Слой_1" xmlns="http://www.w3.org/2000/svg" xmlns:xlink="http://www.w3.org/1999/xlink" x="0px" y="0px"
	 viewBox="0 0 21 11" style="enable-background:new 0 0 21 11;" xml:space="preserve">
<path d="M20.82031,5.11572l-6-5c-0.21094-0.1748-0.52637-0.14795-0.7041,0.06396c-0.17676,0.2124-0.14844,0.52783,0.06348,0.70459
	L19.11871,5H0.5C0.22363,5,0,5.22363,0,5.5S0.22363,6,0.5,6h18.61877l-4.93909,4.11621
	c-0.21191,0.17676-0.24023,0.49219-0.06348,0.7041C14.21484,10.93848,14.35742,11,14.5,11
	c0.11328,0,0.22656-0.03809,0.32031-0.11621l6-4.99951C20.93457,5.78906,21,5.64844,21,5.5S20.93457,5.21094,20.82031,5.11572z"/>
</svg>
