<?xml version="1.0" encoding="utf-8"?>
<!-- Generator: Adobe Illustrator 21.0.0, SVG Export Plug-In . SVG Version: 6.00 Build 0)  -->
<svg version="1.1" id="Слой_1" xmlns="http://www.w3.org/2000/svg" xmlns:xlink="http://www.w3.org/1999/xlink" x="0px" y="0px"
	 viewBox="0 0 21 11" style="enable-background:new 0 0 21 11;" xml:space="preserve">
<path d="M20.5,5H1.88129l4.93903-4.11572c0.21191-0.17676,0.24072-0.49219,0.06396-0.70459
	C6.70703-0.03174,6.39307-0.06055,6.17969,0.11572l-6,5C0.06592,5.21094,0,5.35156,0,5.5s0.06592,0.28906,0.17969,0.38428l6,4.99951
	C6.27344,10.96191,6.38672,11,6.49951,11c0.14355,0,0.28564-0.06152,0.38477-0.17969
	c0.17676-0.21191,0.14795-0.52734-0.06396-0.7041L1.88123,6H20.5C20.77637,6,21,5.77637,21,5.5S20.77637,5,20.5,5z"/>
</svg>
