<?xml version="1.0" encoding="utf-8"?>
<!-- Generator: Adobe Illustrator 21.0.0, SVG Export Plug-In . SVG Version: 6.00 Build 0)  -->
<svg version="1.1" id="Слой_1" xmlns="http://www.w3.org/2000/svg" xmlns:xlink="http://www.w3.org/1999/xlink" x="0px" y="0px"
	 viewBox="0 0 13.299 13.299" style="enable-background:new 0 0 13.299 13.299;" xml:space="preserve">
<path d="M13.05077,11.84945L7.84966,6.64834l5.19885-5.19885c0.33136-0.33136,0.33136-0.86859,0-1.20001
	c-0.33136-0.33136-0.86865-0.33136-1.20001,0L6.64964,5.44833L1.45079,0.24948c-0.33136-0.33136-0.86859-0.33136-1.19995,0H0.25078
	c-0.33136,0.33142-0.33136,0.86865,0,1.20001l5.19885,5.19885l-5.20111,5.20111c-0.33136,0.33142-0.33136,0.86865,0,1.20001
	c0.33136,0.33142,0.86859,0.33142,1.20001,0l5.20111-5.20111l5.20111,5.20111c0.33142,0.33136,0.86865,0.33136,1.20001,0
	S13.38219,12.18087,13.05077,11.84945z"/>
</svg>
